<svg width="690" height="461" viewBox="0 0 690 461" fill="none" xmlns="http://www.w3.org/2000/svg">
<path d="M394.779 67.9834L307.71 67.9834L268.4 0L170.426 0L131.106 67.9834L43.4232 67.9834L0 143.044L43.4232 218.14H141.388L180.707 150.156L257.504 150.156L296.841 218.14H394.797L438.229 143.044L394.779 67.9834ZM131.115 200.309H53.687L20.5722 143.017L53.7137 85.7426L131.124 85.7426L164.266 143.017L131.115 200.309ZM180.69 132.362V132.344L147.566 75.0604L180.69 17.7948L258.118 17.7948L291.242 75.0693L258.118 132.362L180.69 132.362ZM384.497 200.309H307.096L273.954 143.017L307.096 85.7426L384.497 85.7426L417.648 143.017L384.497 200.309ZM72.0605 100.279L42.2393 153.112L34.4858 148.732L64.3158 95.8907L72.0605 100.279ZM60.132 178.749H124.67V187.651H60.132V178.749ZM404.669 146.961L396.898 151.296L367.379 98.5078L375.151 94.1637L404.669 146.961ZM317.689 95.9085L325.46 100.253L295.96 153.058L288.197 148.732L317.689 95.9085Z" fill="black"/>
<path d="M394.779 208.983L307.71 208.983L268.4 141L170.426 141L131.106 208.983H43.4232L0 284.044L43.4232 359.14H141.388L180.707 291.156H257.504L296.841 359.14H394.797L438.229 284.044L394.779 208.983ZM131.115 341.309H53.687L20.5722 284.017L53.7137 226.743H131.124L164.266 284.017L131.115 341.309ZM180.69 273.362V273.344L147.566 216.06L180.69 158.795L258.118 158.795L291.242 216.069L258.118 273.362H180.69ZM384.497 341.309H307.096L273.954 284.017L307.096 226.743L384.497 226.743L417.648 284.017L384.497 341.309ZM72.0605 241.279L42.2393 294.112L34.4858 289.732L64.3158 236.891L72.0605 241.279ZM60.132 319.749H124.67V328.651H60.132V319.749ZM404.669 287.961L396.898 292.296L367.379 239.508L375.151 235.164L404.669 287.961ZM317.689 236.908L325.46 241.253L295.96 294.058L288.197 289.732L317.689 236.908Z" fill="black"/>
<path d="M645.779 208.983L558.71 208.983L519.4 141L421.426 141L382.106 208.983H294.423L251 284.044L294.423 359.14H392.388L431.707 291.156H508.504L547.841 359.14H645.797L689.229 284.044L645.779 208.983ZM382.115 341.309H304.687L271.572 284.017L304.714 226.743H382.124L415.266 284.017L382.115 341.309ZM431.69 273.362V273.344L398.566 216.06L431.69 158.795L509.118 158.795L542.242 216.069L509.118 273.362H431.69ZM635.497 341.309H558.096L524.954 284.017L558.096 226.743L635.497 226.743L668.648 284.017L635.497 341.309ZM323.06 241.279L293.239 294.112L285.486 289.732L315.316 236.891L323.06 241.279ZM311.132 319.749H375.67V328.651H311.132V319.749ZM655.669 287.961L647.898 292.296L618.379 239.508L626.151 235.164L655.669 287.961ZM568.689 236.908L576.46 241.253L546.96 294.058L539.197 289.732L568.689 236.908Z" fill="black"/>
<path d="M645.779 340.983H558.71L519.4 273H421.426L382.106 340.983H294.423L251 416.044L294.423 491.14H392.388L431.707 423.156H508.504L547.841 491.14H645.797L689.229 416.044L645.779 340.983ZM382.115 473.309H304.687L271.572 416.017L304.714 358.743H382.124L415.266 416.017L382.115 473.309ZM431.69 405.362V405.344L398.566 348.06L431.69 290.795H509.118L542.242 348.069L509.118 405.362H431.69ZM635.497 473.309H558.096L524.954 416.017L558.096 358.743H635.497L668.648 416.017L635.497 473.309ZM323.06 373.279L293.239 426.112L285.486 421.732L315.316 368.891L323.06 373.279ZM311.132 451.749H375.67V460.651H311.132V451.749ZM655.669 419.961L647.898 424.296L618.379 371.508L626.151 367.164L655.669 419.961ZM568.689 368.908L576.46 373.253L546.96 426.058L539.197 421.732L568.689 368.908Z" fill="black"/>
<g clip-path="url(#clip0)">
<path d="M43.7112 209.675L10.7372 143L43.7112 76.3247H137.137L170.111 143L137.137 209.675H43.7112Z" fill="#E4A22B"/>
<path d="M137.137 76.3247H128.894L161.868 143L128.894 209.675H137.137L170.111 143L137.137 76.3247Z" fill="#B67F1C"/>
<path d="M43.7112 76.3247H51.9544L18.9804 143L51.9544 209.675H43.7112L10.7372 143L43.7112 76.3247Z" fill="white"/>
<path d="M137.137 212.332H43.711C42.6585 212.332 41.6987 211.746 41.2434 210.825L8.26941 144.149C7.91028 143.423 7.91028 142.577 8.26941 141.851L41.2434 75.1755C41.6987 74.254 42.6585 73.6681 43.711 73.6681H137.137C138.19 73.6681 139.149 74.254 139.605 75.175L172.579 141.85C172.938 142.577 172.938 143.422 172.579 144.149L139.605 210.824C139.149 211.746 138.19 212.332 137.137 212.332ZM45.433 207.019H135.415L167.075 143L135.415 78.9813H45.433L13.773 143L45.433 207.019Z" fill="black"/>
</g>
<path d="M303.744 214.663L270.74 147.926L303.744 81.1898H397.256L430.26 147.926L397.256 214.663H303.744Z" fill="#E4A22B"/>
<path d="M397.256 81.1898H389.005L422.009 147.926L389.005 214.663H397.256L430.26 147.926L397.256 81.1898Z" fill="#B67F1C"/>
<path d="M303.744 81.1898H311.995L278.99 147.926L311.995 214.663H303.744L270.74 147.926L303.744 81.1898Z" fill="white"/>
<path d="M397.256 217.322H303.744C302.69 217.322 301.73 216.736 301.274 215.814L268.27 149.077C267.91 148.35 267.91 147.503 268.27 146.776L301.274 80.0396C301.73 79.1173 302.69 78.5308 303.744 78.5308H397.256C398.309 78.5308 399.27 79.1173 399.726 80.0391L432.73 146.776C433.09 147.503 433.09 148.349 432.73 149.076L399.726 215.813C399.27 216.736 398.309 217.322 397.256 217.322ZM305.467 212.004H395.532L427.221 147.927L395.532 83.8489H305.467L273.778 147.926L305.467 212.004Z" fill="black"/>
<g clip-path="url(#clip1)">
<path d="M296.381 485.425L262.788 417.5L296.381 349.574H391.559L425.151 417.5L391.559 485.425H296.381Z" fill="#E4A22B"/>
<path d="M391.559 349.574H383.16L416.753 417.5L383.16 485.425H391.559L425.151 417.5L391.559 349.574Z" fill="#B67F1C"/>
<path d="M296.381 349.574H304.779L271.186 417.5L304.779 485.425H296.381L262.788 417.5L296.381 349.574Z" fill="white"/>
<path d="M391.559 488.132H296.381C295.308 488.132 294.331 487.535 293.867 486.597L260.274 418.671C259.909 417.931 259.909 417.069 260.274 416.329L293.867 348.404C294.331 347.465 295.308 346.868 296.381 346.868H391.559C392.631 346.868 393.608 347.465 394.073 348.403L427.665 416.329C428.031 417.069 428.031 417.93 427.665 418.67L394.073 486.596C393.608 487.535 392.631 488.132 391.559 488.132ZM298.135 482.719H389.804L422.057 417.5L389.804 352.281H298.135L265.881 417.5L298.135 482.719Z" fill="black"/>
</g>
<path d="M423.527 413.92L390.723 347.588L423.527 281.256H516.473L549.277 347.588L516.473 413.92H423.527Z" fill="#E4A22B"/>
<path d="M516.473 281.256H508.271L541.076 347.588L508.271 413.92H516.473L549.277 347.588L516.473 281.256Z" fill="#B67F1C"/>
<path d="M423.527 281.256H431.728L398.924 347.588L431.728 413.92H423.527L390.723 347.588L423.527 281.256Z" fill="white"/>
<path d="M516.473 416.563H423.527C422.48 416.563 421.525 415.98 421.072 415.064L388.268 348.732C387.911 348.009 387.911 347.168 388.268 346.445L421.072 280.113C421.525 279.196 422.48 278.613 423.527 278.613H516.473C517.52 278.613 518.474 279.196 518.928 280.112L551.732 346.444C552.089 347.167 552.089 348.008 551.732 348.731L518.928 415.063C518.474 415.98 517.52 416.563 516.473 416.563ZM425.24 411.277H514.759L546.256 347.588L514.759 283.899H425.24L393.743 347.588L425.24 411.277Z" fill="black"/>
<g clip-path="url(#clip2)">
<path d="M173.265 277.842L140.703 212L173.265 146.158H265.523L298.085 212L265.523 277.842H173.265Z" fill="#E4A22B"/>
<path d="M265.523 146.158H257.382L289.944 212L257.382 277.842H265.523L298.085 212L265.523 146.158Z" fill="#B67F1C"/>
<path d="M173.265 146.158H181.405L148.843 212L181.405 277.842H173.265L140.703 212L173.265 146.158Z" fill="white"/>
<path d="M265.523 280.465H173.265C172.225 280.465 171.277 279.887 170.828 278.977L138.266 213.135C137.911 212.418 137.911 211.583 138.266 210.865L170.828 145.023C171.277 144.113 172.225 143.535 173.265 143.535H265.523C266.562 143.535 267.51 144.113 267.96 145.023L300.522 210.864C300.876 211.582 300.876 212.417 300.522 213.135L267.96 278.976C267.51 279.887 266.562 280.465 265.523 280.465ZM174.965 275.218H263.822L295.086 212L263.822 148.782H174.965L143.701 212L174.965 275.218Z" fill="black"/>
</g>
<defs>
<clipPath id="clip0">
<rect width="164.848" height="160" fill="white" transform="translate(8 63)"/>
</clipPath>
<clipPath id="clip1">
<rect width="167.939" height="163" fill="white" transform="translate(260 336)"/>
</clipPath>
<clipPath id="clip2">
<rect width="162.788" height="158" fill="white" transform="translate(138 133)"/>
</clipPath>
</defs>
</svg>
