<svg width="439" height="227" viewBox="0 0 439 227" fill="none" xmlns="http://www.w3.org/2000/svg">
<path d="M43.4499 158.156L130.519 158.156L169.829 226.14L267.803 226.14L307.123 158.156H394.806L438.229 83.096L394.806 8H296.841L257.522 75.9834H180.725L141.388 8H43.4321L-3.05176e-05 83.096L43.4499 158.156ZM307.114 25.8304H384.542L417.657 83.1227L384.515 140.397H307.105L273.963 83.1227L307.114 25.8304ZM257.539 93.7782V93.796L290.663 151.079L257.539 208.345H180.111L146.987 151.07L180.111 93.7782H257.539ZM53.7315 25.8304H131.133L164.275 83.1227L131.133 140.397H53.7315L20.5811 83.1227L53.7315 25.8304ZM366.169 125.86L395.99 73.028L403.743 77.4077L373.913 130.249L366.169 125.86ZM378.097 47.3907H313.559V38.4888H378.097V47.3907ZM33.5599 79.1792L41.3313 74.844L70.8498 127.632L63.0785 131.976L33.5599 79.1792ZM120.54 130.231L112.769 125.887L142.269 73.0814L150.032 77.4077L120.54 130.231Z" fill="black"/>
<path d="M44.8271 151.259L10.8227 82.4997L44.8271 13.7411H141.173L175.177 82.4997L141.173 151.259H44.8271Z" fill="#E4A22B"/>
<path d="M141.173 13.7411H132.672L166.676 82.4997L132.672 151.259H141.173L175.177 82.4997L141.173 13.7411Z" fill="#B67F1C"/>
<path d="M44.8271 13.7411H53.328L19.3235 82.4997L53.328 151.259H44.8271L10.8227 82.4997L44.8271 13.7411Z" fill="white"/>
<path d="M141.173 153.999H44.827C43.7416 153.999 42.7518 153.394 42.2822 152.445L8.27783 83.6853C7.90747 82.936 7.90747 82.064 8.27783 81.3147L42.2822 12.556C42.7518 11.6057 43.7416 11.0014 44.827 11.0014H141.173C142.258 11.0014 143.248 11.6057 143.718 12.5555L177.722 81.3142C178.092 82.0635 178.092 82.9355 177.722 83.6849L143.718 152.444C143.248 153.394 142.258 153.999 141.173 153.999ZM46.6028 148.519H139.397L172.046 82.5003L139.397 16.4807H46.6028L13.9535 82.4998L46.6028 148.519Z" fill="black"/>
<g clip-path="url(#clip0)">
<path d="M297.61 152.257L263.806 83.4983L297.61 14.7396H393.39L427.194 83.4983L393.39 152.257H297.61Z" fill="#E4A22B"/>
<path d="M393.39 14.7396H384.938L418.743 83.4983L384.938 152.257H393.39L427.194 83.4983L393.39 14.7396Z" fill="#B67F1C"/>
<path d="M297.61 14.7396H306.061L272.257 83.4983L306.061 152.257H297.61L263.806 83.4983L297.61 14.7396Z" fill="white"/>
<path d="M393.39 154.997H297.61C296.531 154.997 295.547 154.393 295.081 153.443L261.276 84.6839C260.908 83.9346 260.908 83.0626 261.276 82.3132L295.081 13.5545C295.547 12.6043 296.531 12 297.61 12H393.39C394.469 12 395.452 12.6043 395.919 13.554L429.724 82.3127C430.092 83.0621 430.092 83.9341 429.724 84.6834L395.919 153.442C395.452 154.393 394.469 154.997 393.39 154.997ZM299.376 149.518H391.624L424.081 83.4988L391.624 17.4793H299.376L266.918 83.4983L299.376 149.518Z" fill="black"/>
</g>
<defs>
<clipPath id="clip0">
<rect width="170" height="165" fill="white" transform="translate(268 1)"/>
</clipPath>
</defs>
</svg>
