<svg width="22" height="22" viewBox="0 0 22 22" fill="none" xmlns="http://www.w3.org/2000/svg">
<path d="M17.3542 8.02354C17.2474 7.88347 17.0471 7.85659 16.9071 7.96344C16.767 8.07029 16.7401 8.2705 16.847 8.41056L20.9292 13.7609H20.0197L16.3831 8.99465C16.2762 8.85458 16.076 8.8277 15.936 8.93455C15.7959 9.0414 15.769 9.24161 15.8759 9.38167L19.5428 14.1877V17.6382H13.7026V16.9857C13.7026 15.8549 12.7826 14.9349 11.6518 14.9349C10.521 14.9349 9.601 15.8549 9.601 16.9857V17.6382H6.43029C6.25411 17.6382 6.11128 17.781 6.11128 17.9572C6.11128 18.1334 6.25411 18.2762 6.43029 18.2762H9.601V19.1795H4.99691C4.82073 19.1795 4.6779 19.3223 4.6779 19.4985C4.6779 19.6747 4.82073 19.8175 4.99691 19.8175H16.1295C16.3057 19.8175 16.4485 19.6747 16.4485 19.4985C16.4485 19.3223 16.3057 19.1795 16.1295 19.1795H13.7026V18.2762H19.5428V19.1795H17.489C17.3128 19.1795 17.17 19.3223 17.17 19.4985C17.17 19.6747 17.3128 19.8175 17.489 19.8175H19.8618H20.3015C20.3372 19.8175 20.3663 19.8465 20.3663 19.8823V20.5505H3.72193C3.54576 20.5505 3.40292 20.6933 3.40292 20.8695C3.40292 21.0456 3.54576 21.1885 3.72193 21.1885H20.6853C20.8614 21.1885 21.0043 21.0456 21.0043 20.8695V19.8823C21.0043 19.4947 20.689 19.1795 20.3015 19.1795H20.1808V14.3989H21.1022C21.3138 14.3989 21.5035 14.2811 21.5973 14.0915C21.6911 13.9018 21.6697 13.6795 21.5414 13.5113L17.3542 8.02354ZM10.239 19.1795V16.9857C10.239 16.2067 10.8728 15.5729 11.6518 15.5729C12.4308 15.5729 13.0646 16.2067 13.0646 16.9857V19.1795H10.239Z" fill="black"/>
<path d="M2.24402 14.3989H3.16532V15.2132C3.16532 15.3893 3.30815 15.5322 3.48433 15.5322C3.66051 15.5322 3.80334 15.3893 3.80334 15.2132V14.1877L11.6731 3.87347L13.4027 6.14027C13.5096 6.28034 13.7097 6.30722 13.8498 6.20037C13.9899 6.09353 14.0168 5.89331 13.9099 5.75325L11.9267 3.15403C11.8664 3.07496 11.7726 3.02851 11.6731 3.02851C11.5736 3.02851 11.4798 3.07492 11.4195 3.15403L3.32649 13.7609H2.41696L8.75299 5.4567C8.85988 5.31663 8.83295 5.11642 8.69288 5.00957C8.55286 4.90264 8.35261 4.92956 8.24576 5.06967L1.8048 13.5113C1.67643 13.6796 1.65504 13.9018 1.74887 14.0915C1.8427 14.2811 2.03241 14.3989 2.24402 14.3989Z" fill="black"/>
<path d="M9.13104 4.43531C9.27107 4.5422 9.47128 4.51528 9.57817 4.37521L11.3857 2.00628C11.4537 1.91721 11.5611 1.86404 11.6731 1.86404C11.7852 1.86404 11.8926 1.91721 11.9606 2.00628L14.3738 5.16916C14.4366 5.25147 14.5316 5.29468 14.6277 5.29468C14.6951 5.29468 14.7632 5.27337 14.821 5.22927C14.961 5.12242 14.988 4.92221 14.8811 4.78214L12.4678 1.61921C12.2799 1.37298 11.9829 1.22598 11.6731 1.22598C11.3634 1.22598 11.0663 1.37298 10.8785 1.61921L9.07094 3.98814C8.96405 4.12825 8.99098 4.32846 9.13104 4.43531Z" fill="black"/>
<path d="M15.356 11.1552C14.7732 11.1552 14.299 11.6293 14.299 12.2122V14.0593C14.1583 14.0924 14.0534 14.2186 14.0534 14.3695C14.0534 14.5457 14.1962 14.6885 14.3724 14.6885H14.618H16.0939H16.3776C16.5538 14.6885 16.6966 14.5457 16.6966 14.3695C16.6966 14.2052 16.5725 14.0701 16.4129 14.0525V12.2122C16.413 11.6294 15.9388 11.1552 15.356 11.1552ZM14.9371 14.0505V12.2122C14.9371 11.9811 15.125 11.7932 15.356 11.7932C15.5871 11.7932 15.775 11.9811 15.775 12.2122V14.0505H14.9371Z" fill="black"/>
<path d="M0.586382 21.1736H2.29381C2.46999 21.1736 2.61282 21.0308 2.61282 20.8546C2.61282 20.6785 2.46999 20.5356 2.29381 20.5356H0.638018V15.9305L2.41423 17.7067C2.53881 17.8313 2.74081 17.8313 2.86535 17.7067L11.0459 9.52613V9.89763C11.0459 10.0641 11.1461 10.211 11.301 10.2719C11.4558 10.3328 11.6293 10.2934 11.7427 10.1715L20.3974 0.865162C20.4101 0.851509 20.4251 0.848318 20.4354 0.848021C20.4455 0.847553 20.4608 0.850147 20.4741 0.863077L20.9918 1.3638C21.0126 1.38396 21.0136 1.41769 20.9938 1.439L10.1952 13.0925V12.551C10.1952 12.3877 10.0977 12.2419 9.94692 12.1794C9.79609 12.1169 9.62404 12.1511 9.5086 12.2666L3.46692 18.3083C3.34234 18.4329 3.34234 18.6349 3.46692 18.7594L5.24313 20.5356H3.65331C3.47713 20.5356 3.3343 20.6785 3.3343 20.8546C3.3343 21.0308 3.47713 21.1736 3.65331 21.1736H5.3678C5.60582 21.1736 5.81845 21.0316 5.90952 20.8117C6.00063 20.5918 5.95074 20.3409 5.78243 20.1726L4.14365 18.5338L9.55722 13.1203V13.5763C9.55722 13.762 9.66896 13.9259 9.84186 13.9937C10.0149 14.0615 10.2081 14.0173 10.3344 13.881L21.4619 1.87264C21.7157 1.59876 21.7038 1.16474 21.4354 0.905188L20.9177 0.404469C20.7876 0.278608 20.6177 0.209957 20.4374 0.209957C20.4311 0.209957 20.4248 0.210041 20.4185 0.210213C20.2312 0.215189 20.0578 0.293453 19.9303 0.43067L11.684 9.29781V9.06825C11.684 8.88628 11.5754 8.72367 11.4072 8.654C11.2391 8.58437 11.0473 8.62253 10.9186 8.75119L2.63983 17.03L1.00105 15.3912C0.832743 15.2229 0.581873 15.173 0.362011 15.2641C0.142107 15.3552 -3.8147e-06 15.5679 -3.8147e-06 15.8058V20.5873C-4.57764e-05 20.9106 0.263033 21.1736 0.586382 21.1736Z" fill="#DE2222"/>
</svg>
