<svg width="21" height="21" viewBox="0 0 21 21" fill="none" xmlns="http://www.w3.org/2000/svg">
<path d="M15.7398 7.8878C15.6379 7.7542 15.4469 7.72856 15.3133 7.83047C15.1797 7.93238 15.1541 8.12334 15.256 8.25694L19.1496 13.3601H18.2821L14.8135 8.81404C14.7116 8.68045 14.5207 8.65481 14.3871 8.75672C14.2535 8.85863 14.2278 9.04959 14.3298 9.18319L17.8273 13.7671V17.0582H12.2569V16.4359C12.2569 15.3573 11.3795 14.4798 10.3009 14.4798C9.22228 14.4798 8.3448 15.3573 8.3448 16.4359V17.0582H5.32058C5.15254 17.0582 5.01631 17.1945 5.01631 17.3625C5.01631 17.5305 5.15254 17.6668 5.32058 17.6668H8.3448V18.5283H3.95342C3.78538 18.5283 3.64915 18.6646 3.64915 18.8326C3.64915 19.0006 3.78538 19.1369 3.95342 19.1369H14.5717C14.7397 19.1369 14.8759 19.0006 14.8759 18.8326C14.8759 18.6646 14.7397 18.5283 14.5717 18.5283H12.2569V17.6668H17.8273V18.5283H15.8684C15.7003 18.5283 15.5641 18.6646 15.5641 18.8326C15.5641 19.0006 15.7003 19.1369 15.8684 19.1369H18.1316H18.5509C18.585 19.1369 18.6127 19.1646 18.6127 19.1987V19.836H2.73735C2.56931 19.836 2.43307 19.9722 2.43307 20.1402C2.43307 20.3083 2.56931 20.4445 2.73735 20.4445H18.917C19.085 20.4445 19.2212 20.3083 19.2212 20.1402V19.1987C19.2212 18.829 18.9205 18.5283 18.5509 18.5283H18.4359V13.9686H19.3146C19.5164 13.9686 19.6974 13.8562 19.7869 13.6754C19.8764 13.4945 19.8559 13.2825 19.7335 13.1221L15.7398 7.8878ZM8.95335 18.5283V16.4359C8.95335 15.6929 9.55783 15.0884 10.3009 15.0884C11.0439 15.0884 11.6484 15.6929 11.6484 16.4359V18.5283H8.95335Z" fill="black"/>
<path d="M1.32772 13.9686H2.20646V14.7452C2.20646 14.9133 2.34269 15.0495 2.51073 15.0495C2.67877 15.0495 2.815 14.9133 2.815 14.7452V13.7672L10.3212 3.92946L11.9708 6.09153C12.0728 6.22513 12.2637 6.25077 12.3973 6.14886C12.5309 6.04695 12.5566 5.85599 12.4546 5.72239L10.5631 3.24326C10.5055 3.16784 10.416 3.12354 10.3212 3.12354C10.2263 3.12354 10.1369 3.1678 10.0793 3.24326L2.36018 13.3601H1.49268L7.53597 5.43954C7.63792 5.30594 7.61224 5.11498 7.47865 5.01307C7.34509 4.91108 7.15409 4.93676 7.05218 5.07039L0.908799 13.122C0.78636 13.2825 0.765953 13.4945 0.85545 13.6754C0.944946 13.8562 1.12589 13.9686 1.32772 13.9686Z" fill="black"/>
<path d="M7.89655 4.46534C8.0301 4.56729 8.22106 4.54161 8.32301 4.40802L10.047 2.14853C10.1119 2.06358 10.2143 2.01287 10.3212 2.01287C10.4281 2.01287 10.5305 2.06358 10.5954 2.14853L12.8971 5.16529C12.957 5.24379 13.0476 5.28501 13.1392 5.28501C13.2036 5.28501 13.2685 5.26468 13.3236 5.22261C13.4572 5.1207 13.4829 4.92974 13.3809 4.79615L11.0792 1.77935C10.9 1.54449 10.6166 1.40428 10.3212 1.40428C10.0258 1.40428 9.74242 1.54449 9.56323 1.77935L7.83922 4.03883C7.73727 4.17247 7.76295 4.36343 7.89655 4.46534Z" fill="black"/>
<path d="M13.8339 10.8748C13.278 10.8748 12.8258 11.327 12.8258 11.8829V13.6447C12.6915 13.6763 12.5915 13.7966 12.5915 13.9405C12.5915 14.1086 12.7277 14.2448 12.8957 14.2448H13.13H14.5378H14.8083C14.9764 14.2448 15.1126 14.1086 15.1126 13.9405C15.1126 13.7839 14.9942 13.655 14.842 13.6383V11.8829C14.8421 11.327 14.3898 10.8748 13.8339 10.8748ZM13.4344 13.6363V11.8829C13.4344 11.6626 13.6136 11.4833 13.834 11.4833C14.0543 11.4833 14.2336 11.6626 14.2336 11.8829V13.6363H13.4344Z" fill="black"/>
<path d="M20.0854 0.200256H18.4569C18.2888 0.200256 18.1526 0.336489 18.1526 0.504529C18.1526 0.672568 18.2888 0.808801 18.4569 0.808801H20.0362V5.20119L18.342 3.50705C18.2232 3.38822 18.0305 3.38822 17.9117 3.50705L10.1091 11.3096V10.9553C10.1091 10.7965 10.0136 10.6564 9.86584 10.5983C9.71813 10.5402 9.55268 10.5778 9.44452 10.6941L1.18966 19.5705C1.17753 19.5835 1.16329 19.5865 1.15347 19.5868C1.14377 19.5873 1.12925 19.5848 1.11647 19.5725L0.622737 19.0949C0.602858 19.0756 0.601966 19.0435 0.62079 19.0231L10.9205 7.908V8.42453C10.9205 8.58024 11.0135 8.71939 11.1573 8.77895C11.3012 8.83854 11.4653 8.80593 11.5754 8.69578L17.338 2.93323C17.4568 2.8144 17.4568 2.62174 17.338 2.50295L15.6438 0.808801H17.1602C17.3282 0.808801 17.4645 0.672568 17.4645 0.504529C17.4645 0.336489 17.3282 0.200256 17.1602 0.200256H15.5249C15.2979 0.200256 15.0951 0.335759 15.0082 0.545504C14.9213 0.755249 14.9689 0.994529 15.1294 1.15502L16.6925 2.71809L11.529 7.88155V7.4466C11.529 7.26943 11.4225 7.11316 11.2575 7.04849C11.0925 6.98382 10.9082 7.02602 10.7877 7.15596L0.174362 18.6095C-0.0676768 18.8708 -0.0563579 19.2847 0.199637 19.5323L0.693369 20.0099C0.817472 20.1299 0.979588 20.1954 1.15156 20.1954C1.15753 20.1954 1.16353 20.1953 1.16953 20.1952C1.34816 20.1904 1.51357 20.1158 1.63523 19.9849L9.50051 11.5274V11.7464C9.50051 11.9199 9.60413 12.075 9.7645 12.1415C9.92483 12.2079 10.1078 12.1715 10.2305 12.0488L18.1268 4.15247L19.6899 5.71554C19.8504 5.87611 20.0897 5.92366 20.2994 5.83676C20.5092 5.7499 20.6447 5.54705 20.6447 5.32006V0.759549C20.6447 0.451139 20.3938 0.200256 20.0854 0.200256Z" fill="#1DCC43"/>
</svg>
